<svg xmlns="http://www.w3.org/2000/svg" viewBox="0 0 18.337 18.337"><path d="M13.989 5.322a3.85 3.85 0 00-2.809-.271 3.911 3.911 0 00-1.867 1.184l-.03.003.019.013a.915.915 0 00-.029.036.174.174 0 00-.012-.014c.027-.054.059-.105.088-.158.586-.584 1.156-1.073 1.75-1.428a4.16 4.16 0 011.887-.613c.654-.047 1.354.055 2.088.24.736.18 1.489.449 2.333.671a5.461 5.461 0 00-1.87-1.78c-.762-.44-1.688-.727-2.662-.655A3.86 3.86 0 009.81 4.468c.014-.146.033-.292.031-.441a3.852 3.852 0 00-1.074-2.609C8.092.712 7.212.305 6.352.122a5.463 5.463 0 00-2.581.069c.776.399 1.515.704 2.183 1.064.668.354 1.257.746 1.711 1.219.455.472.783 1.034.991 1.719.169.548.263 1.155.316 1.817a3.962 3.962 0 00-.957-1.856 3.853 3.853 0 00-2.534-1.241c-.972-.081-1.901.198-2.666.631A5.471 5.471 0 00.929 5.307c.845-.216 1.601-.477 2.339-.651.734-.178 1.435-.274 2.089-.221a4.144 4.144 0 011.881.629c.318.193.629.428.939.692a1.74 1.74 0 00-.975.181c-.396.2-.688.529-.881.879a2.499 2.499 0 00-.309 1.13c.275-.284.505-.565.75-.808.241-.244.489-.448.754-.584.264-.135.552-.204.877-.204.132-.001.272.015.413.033-.284.388-.546.793-.782 1.212-.549.98-.986 2.025-1.351 3.091s-.659 2.158-.898 3.262c-.237 1.113-.265 3.207-.384 4.389l2.545-.002c-.096-1.002-.285-3.104-.266-4.158a27.75 27.75 0 01.239-3.193c.146-1.059.362-2.111.696-3.13.146-.442.321-.878.52-1.303l.259-.06.063.013c-.005-.008-.012-.015-.018-.022l.165-.038c.202.137.39.277.542.432.229.229.384.481.476.765.092.282.123.603.121.946.001.344-.035.704-.042 1.101a2.5 2.5 0 00.581-1.018c.11-.384.137-.823-.002-1.244a1.744 1.744 0 00-.813-.988 1.874 1.874 0 00-.243-.108 7.01 7.01 0 011.15-.095c.716 0 1.349.151 1.933.45.584.298 1.13.747 1.662 1.284.537.536 1.044 1.154 1.65 1.782a5.472 5.472 0 00-.681-2.491c-.424-.772-1.068-1.496-1.939-1.938z" fill="#e74b54"/></svg>