<svg version="1.1" id="Layer_1" xmlns="http://www.w3.org/2000/svg" x="0" y="0" viewBox="0 0 335 346" xml:space="preserve"><style>.st0{fill-rule:evenodd;clip-rule:evenodd;fill:#e74b54}</style><path class="st0" d="M193.7 91.9c-1 0-1.9-.2-2.7-.6L173.8 83l-17.3 8.3c-2.1 1-4.6.8-6.5-.6-1.9-1.4-2.9-3.7-2.6-6l2.6-19-13.2-13.8c-1.6-1.7-2.2-4.1-1.5-6.4.7-2.2 2.6-3.9 4.9-4.3l18.8-3.4 9.1-16.9c1.1-2 3.3-3.4 5.6-3.4 2.4 0 4.5 1.3 5.6 3.4l9.1 16.9 18.8 3.4c2.3.4 4.2 2 4.9 4.3.7 2.2.2 4.6-1.5 6.4l-13.2 13.8 2.6 19c.3 2.3-.7 4.6-2.6 6-1.1.8-2.4 1.2-3.7 1.2zm-10.6-17.4c-.5 0-.9-.1-1.3-.3l-8.1-4.7-8.1 4.8c-1 .5-2.2.4-3-.3-.9-.7-1.4-1.7-1.2-2.8l1.2-9.9-7.2-6.5c-.7-.8-1-2-.7-3 .3-1 1.2-1.8 2.3-2l9.8-1.6 4.3-8.8c.5-1 1.5-1.6 2.6-1.6s2.1.6 2.6 1.6l4.3 8.8 9.8 1.6c1.1.2 2 1 2.3 2 .3 1 .1 2.2-.7 3l-7.1 6.5 1.2 9.8c.2 1.1-.3 2.2-1.2 2.8-.6.4-1.2.6-1.8.6z"/><path class="st0" d="M41.7 267.6C17.1 237.5 3.6 199.5 3.6 160.5c0-34.1 10.1-67 29.1-95.2 18.6-27.4 44.5-48.7 75.1-61.5 2.4-1 5.2-.5 6.9 1.4 1.9 1.9 2.4 4.6 1.4 7-8.1 19.3-12.2 39.7-12.2 60.8 0 86.6 70.4 157 157 157 21.1 0 41.5-4.1 60.7-12.2 2.4-1 5.2-.5 7 1.3 1.8 1.9 2.4 4.6 1.3 7-11.3 26.9-29.5 50.6-52.6 68.5-23.2 18-49.3 29.1-76 33.7.1-1.1.2-2.2.2-3.4 0-18.9-15.3-34.1-34.2-34.1-18.9 0-34.1 15.3-34.1 34.1v1c-34.6-8.4-66.9-28-91.5-58.3z"/><path class="st0" d="M185.7 324.9c0-10-8.2-18.2-18.3-18.2-10 0-18.2 8.2-18.2 18.2 0 10.1 8.2 18.3 18.2 18.3 10.1 0 18.3-8.2 18.3-18.3zM299 193.1c-1.6 0-3.1-.3-4.5-1l-28.4-13.7-28.4 13.6c-3.5 1.7-7.6 1.2-10.7-1-3.1-2.3-4.7-6.1-4.2-9.9L227 150l-21.8-22.7c-2.6-2.8-3.6-6.8-2.4-10.5 1.2-3.7 4.3-6.4 8.1-7.1l31-5.6 14.9-27.8c1.8-3.3 5.4-5.6 9.2-5.6 3.9 0 7.5 2.1 9.3 5.6l14.9 27.8 31 5.6c3.8.7 6.9 3.4 8.1 7.1 1.2 3.7.3 7.7-2.4 10.5L305.2 150l4.2 31.2c.5 3.8-1.1 7.7-4.2 9.9-1.8 1.3-4 2-6.2 2zm-17.5-28.6c-.7 0-1.5-.1-2.1-.5l-13.3-7.8-13.3 8c-1.6.8-3.5.6-5-.4a5 5 0 01-2-4.6l2-16.2-11.8-10.8c-1.2-1.3-1.7-3.2-1.1-4.9.5-1.7 2-3 3.8-3.4l16.1-2.6 7-14.6c.9-1.6 2.5-2.6 4.4-2.6 1.8 0 3.5 1 4.3 2.6l7 14.6 16.1 2.6c1.8.3 3.3 1.6 3.8 3.4.5 1.7.1 3.6-1.1 4.9l-11.8 10.6 2 16.1c.2 1.8-.6 3.6-2 4.6-.9.7-1.9 1-3 1z"/></svg>