<svg id="Capa_1" enable-background="new 0 0 512 512" height="512" viewBox="0 0 512 512" width="512" xmlns="http://www.w3.org/2000/svg">
  <g>
    <path d="m256 7.5v497c5.003 0 9.421-2.458 12.146-6.223l139.905-193.562c22.298-30.847 35.449-68.743 35.449-109.715 0-103.553-83.947-187.5-187.5-187.5z" fill="#e74b54"/>
    <path d="m256 7.5c-103.553 0-187.5 83.947-187.5 187.5 0 40.972 13.151 78.868 35.449 109.716l139.905 193.562c2.725 3.764 7.144 6.223 12.146 6.223 4.202 0 7.914-2.458 10.203-6.223l117.52-193.562c18.73-30.848 29.777-68.744 29.777-109.716 0-103.553-70.515-187.5-157.5-187.5z" fill="#e74b54"/>
    <path d="m256 82.5v225c62.132 0 112.5-50.368 112.5-112.5s-50.368-112.5-112.5-112.5z" fill="#EFC3CD"/>
    <path d="m256 82.5c-62.132 0-112.5 50.368-112.5 112.5s50.368 112.5 112.5 112.5c45.563 0 82.5-50.368 82.5-112.5s-36.937-112.5-82.5-112.5z" fill="#fff"/>
    <path d="m256 157.5v75c20.711 0 37.5-16.789 37.5-37.5s-16.789-37.5-37.5-37.5z" fill="#e74b54"/>
    <path d="m263.5 195c0-20.711-3.358-37.5-7.5-37.5-20.711 0-37.5 16.789-37.5 37.5s16.789 37.5 37.5 37.5c4.142 0 7.5-16.789 7.5-37.5z" fill="#ff4572"/>

    <path d="m256 150c-5.649 0-11.18 1.046-16.436 3.11-3.856 1.514-5.754 5.867-4.241 9.722 1.514 3.855 5.866 5.752 9.722 4.241 3.503-1.376 7.189-2.073 10.955-2.073 16.542 0 30 13.458 30 30s-13.458 30-30 30-30-13.458-30-30c0-3.766.697-7.452 2.073-10.955 1.514-3.855-.384-8.208-4.24-9.722-3.853-1.515-8.208.384-9.722 4.24-2.065 5.257-3.111 10.787-3.111 16.437 0 24.813 20.187 45 45 45s45-20.187 45-45-20.187-45-45-45z"/>
    <path d="m256 0c-107.523 0-195 87.477-195 195 0 41.28 12.75 80.739 36.871 114.109l139.908 193.566c4.227 5.839 11.038 9.325 18.221 9.325s13.994-3.486 18.225-9.329l139.905-193.562c24.12-33.37 36.87-72.829 36.87-114.109 0-107.523-87.477-195-195-195zm145.972 300.322-139.901 193.557c-1.436 1.983-3.649 3.121-6.071 3.121s-4.635-1.138-6.067-3.116l-139.906-193.562c-22.26-30.797-34.027-67.217-34.027-105.322 0-99.252 80.748-180 180-180s180 80.748 180 180c0 38.105-11.767 74.525-34.028 105.322z"/>
    <path d="m256 75c-66.168 0-120 53.832-120 120s53.832 120 120 120 120-53.832 120-120-53.832-120-120-120zm0 225c-57.897 0-105-47.103-105-105s47.103-105 105-105 105 47.103 105 105-47.103 105-105 105z"/>
  </g>
</svg>
