<?xml version="1.0" encoding="UTF-8"?>
<!DOCTYPE svg PUBLIC "-//W3C//DTD SVG 1.1//EN" "http://www.w3.org/Graphics/SVG/1.1/DTD/svg11.dtd">
<!-- Creator: CorelDRAW 2019 (64-Bit) -->
<svg xmlns="http://www.w3.org/2000/svg" xml:space="preserve" width="105.699mm" height="123.051mm" version="1.1" style="shape-rendering:geometricPrecision; text-rendering:geometricPrecision; image-rendering:optimizeQuality; fill-rule:evenodd; clip-rule:evenodd"
viewBox="0 0 819 953"
 xmlns:xlink="http://www.w3.org/1999/xlink">
 <defs>
  <style type="text/css">
   <![CDATA[
    .fil4 {fill:black}
    .fil2 {fill:#D6D6D6}
    .fil0 {fill:#E74B54}
    .fil1 {fill:#FF8C95}
    .fil3 {fill:white}
   ]]>
  </style>
 </defs>
 <g id="Слой_x0020_1">
  <metadata id="CorelCorpID_0Corel-Layer"/>
  <path class="fil0" d="M686 132c-153,-153 -401,-153 -554,0 -135,135 -153,349 -42,504 77,108 170,204 276,285 26,20 62,20 87,0 25,-19 49,-39 73,-60 76,-67 144,-143 203,-225 111,-156 93,-369 -42,-504l0 0z"/>
  <path class="fil1" d="M187 167c-135,135 -153,349 -42,504 24,33 49,65 75,96 7,8 -5,20 -13,12 -42,-45 -82,-92 -117,-142 -49,-68 -72,-148 -72,-226 0,-226 192,-407 420,-391 22,2 22,33 0,35 -91,6 -181,44 -250,114z"/>
  <circle class="fil2" cx="409" cy="407" r="280"/>
  <path class="fil3" d="M184 572c-35,-47 -55,-106 -54,-170 3,-176 168,-308 341,-269 20,5 17,34 -4,35 -189,3 -324,213 -253,387 8,19 -18,33 -30,17l0 0z"/>
  <path class="fil0" d="M556 338c19,3 27,27 13,40l-54 53c-6,5 -8,13 -7,21l13 74c3,19 -17,34 -34,25l-67 -35c-7,-4 -15,-4 -22,0l-67 35c-17,9 -37,-6 -34,-25l13 -74c1,-8 -1,-15 -7,-21l-54 -53c-14,-14 -6,-37 13,-40l74 -11c8,-1 14,-6 18,-13l33 -67c9,-18 34,-18 42,0l33 67c3,7 10,12 18,13l74 11z"/>
  <path class="fil4" d="M743 646c116,-163 97,-386 -44,-526 -160,-160 -419,-160 -579,0 -141,141 -160,364 -44,526 78,110 172,207 279,288 32,24 77,24 109,0 8,-6 9,-17 3,-25 -6,-8 -17,-9 -25,-3 -20,15 -47,15 -66,0 -104,-80 -196,-174 -272,-281 -106,-149 -89,-352 41,-481 146,-146 383,-146 529,0 130,130 147,332 41,481 -94,132 -182,204 -188,212 -6,7 -5,17 0,23 3,3 13,10 26,-1 25,-22 3,-2 25,-22 61,-58 117,-123 166,-192l0 0z"/>
  <path class="fil4" d="M148 509c-9,4 -13,14 -8,23 49,104 154,172 270,172 164,0 297,-133 297,-297 0,-164 -133,-297 -297,-297 -164,0 -297,133 -297,297 0,10 8,17 17,17 10,0 17,-8 17,-17 0,-145 118,-262 262,-262 145,0 262,118 262,262 0,145 -118,262 -262,262 -102,0 -195,-60 -238,-152 -4,-9 -14,-13 -23,-8l0 0z"/>
  <path class="fil4" d="M581 391c24,-24 11,-65 -23,-70l-74 -11c-2,0 -4,-2 -5,-3l-33 -67c-15,-30 -59,-30 -74,0l-33 67c-1,2 -3,3 -5,3l-74 11c-34,5 -47,46 -23,70l54 53c1,1 2,3 2,5l-13 74c-6,34 29,59 60,43l67 -35c2,-1 4,-1 6,0l67 35c30,16 65,-10 60,-43l-13 -74c0,-2 0,-4 2,-5l54 -53zm-78 27c-10,9 -14,23 -12,36l13 74c1,5 -4,9 -9,6l-67 -35c-12,-6 -26,-6 -38,0l-67 35c-4,2 -10,-1 -9,-6l13 -74c2,-13 -2,-27 -12,-36l-54 -53c-4,-4 -2,-10 3,-10l74 -11c13,-2 25,-10 31,-22l33 -67c2,-5 9,-5 11,0l33 67c6,12 18,21 31,22l74 11c5,1 7,7 3,10l-54 53z"/>
 </g>
</svg>
