<?xml version="1.0" encoding="UTF-8"?>
<!DOCTYPE svg PUBLIC "-//W3C//DTD SVG 1.1//EN" "http://www.w3.org/Graphics/SVG/1.1/DTD/svg11.dtd">
<!-- Creator: CorelDRAW 2019 (64-Bit) -->
<svg xmlns="http://www.w3.org/2000/svg" xml:space="preserve" width="87.598mm" height="34.76mm" version="1.1" style="shape-rendering:geometricPrecision; text-rendering:geometricPrecision; image-rendering:optimizeQuality; fill-rule:evenodd; clip-rule:evenodd"
viewBox="0 0 979 389"
 xmlns:xlink="http://www.w3.org/1999/xlink">
 <defs>
  <style type="text/css">
   <![CDATA[
    .fil0 {fill:#E74B54}
    .fil1 {fill:#E74B54;fill-rule:nonzero}
   ]]>
  </style>
 </defs>
 <g id="Слой_x0020_1">
  <metadata id="CorelCorpID_0Corel-Layer"/>
  <path class="fil0" d="M37 34c-25,23 -37,63 -37,121l0 79c0,58 12,98 37,121 25,23 68,34 130,34l58 0c62,0 106,-11 131,-34 25,-23 37,-63 37,-121l0 -79c0,-57 -12,-98 -37,-121 -25,-23 -68,-34 -131,-34l-58 0c-62,0 -105,11 -130,34zm91 92c-11,10 -16,27 -16,52l0 34c0,25 5,42 16,52 11,10 29,15 56,15l25 0c27,0 45,-5 56,-15 11,-10 16,-27 16,-52l0 -34c0,-25 -5,-42 -16,-52 -11,-10 -29,-15 -56,-15l-25 0c-26,0 -45,5 -56,15z"/>
  <path class="fil1" d="M578 4c85,0 21,0 106,0l-106 191 0 -191z"/>
  <path class="fil1" d="M979 379l-214 -375 -149 260 -111 1 0 -261 -74 0 -50 0 0 379 205 -5 95 0c84,-154 1,-1 84,-153 83,152 0,-1 84,153l129 0z"/>
 </g>
</svg>
