<?xml version="1.0" encoding="utf-8"?>
<!-- Generator: Adobe Illustrator 24.0.1, SVG Export Plug-In . SVG Version: 6.00 Build 0)  -->
<svg version="1.1" id="Layer_1" xmlns="http://www.w3.org/2000/svg" xmlns:xlink="http://www.w3.org/1999/xlink" x="0px" y="0px"
	 viewBox="0 0 335 346" style="enable-background:new 0 0 335 346;" xml:space="preserve">
<style type="text/css">
	.st0{fill-rule:evenodd;clip-rule:evenodd;fill:#E74B54;}
</style>
<g>
	<path class="st0" d="M193.7,91.9c-1,0-1.9-0.2-2.7-0.6l-17.2-8.3l-17.3,8.3c-2.1,1-4.6,0.8-6.5-0.6c-1.9-1.4-2.9-3.7-2.6-6l2.6-19
		l-13.2-13.8c-1.6-1.7-2.2-4.1-1.5-6.4c0.7-2.2,2.6-3.9,4.9-4.3l18.8-3.4l9.1-16.9c1.1-2,3.3-3.4,5.6-3.4c2.4,0,4.5,1.3,5.6,3.4
		l9.1,16.9l18.8,3.4c2.3,0.4,4.2,2,4.9,4.3c0.7,2.2,0.2,4.6-1.5,6.4l-13.2,13.8l2.6,19c0.3,2.3-0.7,4.6-2.6,6
		C196.3,91.5,195,91.9,193.7,91.9L193.7,91.9z M183.1,74.5c-0.5,0-0.9-0.1-1.3-0.3l-8.1-4.7l-8.1,4.8c-1,0.5-2.2,0.4-3-0.3
		c-0.9-0.7-1.4-1.7-1.2-2.8l1.2-9.9l-7.2-6.5c-0.7-0.8-1-2-0.7-3c0.3-1,1.2-1.8,2.3-2l9.8-1.6l4.3-8.8c0.5-1,1.5-1.6,2.6-1.6
		c1.1,0,2.1,0.6,2.6,1.6l4.3,8.8l9.8,1.6c1.1,0.2,2,1,2.3,2c0.3,1,0.1,2.2-0.7,3l-7.1,6.5l1.2,9.8c0.2,1.1-0.3,2.2-1.2,2.8
		C184.3,74.3,183.7,74.5,183.1,74.5L183.1,74.5z"/>
	<path class="st0" d="M41.7,267.6C17.1,237.5,3.6,199.5,3.6,160.5c0-34.1,10.1-67,29.1-95.2c18.6-27.4,44.5-48.7,75.1-61.5
		c2.4-1,5.2-0.5,6.9,1.4c1.9,1.9,2.4,4.6,1.4,7C108,31.5,103.9,51.9,103.9,73c0,86.6,70.4,157,157,157c21.1,0,41.5-4.1,60.7-12.2
		c2.4-1,5.2-0.5,7,1.3c1.8,1.9,2.4,4.6,1.3,7c-11.3,26.9-29.5,50.6-52.6,68.5c-23.2,18-49.3,29.1-76,33.7c0.1-1.1,0.2-2.2,0.2-3.4
		c0-18.9-15.3-34.1-34.2-34.1c-18.9,0-34.1,15.3-34.1,34.1c0,0.4,0,0.7,0,1C98.6,317.5,66.3,297.9,41.7,267.6L41.7,267.6z"/>
	<path class="st0" d="M185.7,324.9c0-10-8.2-18.2-18.3-18.2c-10,0-18.2,8.2-18.2,18.2c0,10.1,8.2,18.3,18.2,18.3
		C177.5,343.2,185.7,335,185.7,324.9L185.7,324.9z"/>
	<path class="st0" d="M299,193.1c-1.6,0-3.1-0.3-4.5-1l-28.4-13.7L237.7,192c-3.5,1.7-7.6,1.2-10.7-1c-3.1-2.3-4.7-6.1-4.2-9.9
		L227,150l-21.8-22.7c-2.6-2.8-3.6-6.8-2.4-10.5c1.2-3.7,4.3-6.4,8.1-7.1l31-5.6l14.9-27.8c1.8-3.3,5.4-5.6,9.2-5.6
		c3.9,0,7.5,2.1,9.3,5.6l14.9,27.8l31,5.6c3.8,0.7,6.9,3.4,8.1,7.1c1.2,3.7,0.3,7.7-2.4,10.5L305.2,150l4.2,31.2
		c0.5,3.8-1.1,7.7-4.2,9.9C303.4,192.4,301.2,193.1,299,193.1L299,193.1z M281.5,164.5c-0.7,0-1.5-0.1-2.1-0.5l-13.3-7.8l-13.3,8
		c-1.6,0.8-3.5,0.6-5-0.4c-1.5-1.1-2.2-2.9-2-4.6l2-16.2L236,132.2c-1.2-1.3-1.7-3.2-1.1-4.9c0.5-1.7,2-3,3.8-3.4l16.1-2.6l7-14.6
		c0.9-1.6,2.5-2.6,4.4-2.6c1.8,0,3.5,1,4.3,2.6l7,14.6l16.1,2.6c1.8,0.3,3.3,1.6,3.8,3.4c0.5,1.7,0.1,3.6-1.1,4.9l-11.8,10.6l2,16.1
		c0.2,1.8-0.6,3.6-2,4.6C283.6,164.2,282.6,164.5,281.5,164.5L281.5,164.5z"/>
</g>
</svg>
