<?xml version="1.0" encoding="UTF-8"?>
<!DOCTYPE svg PUBLIC "-//W3C//DTD SVG 1.1//EN" "http://www.w3.org/Graphics/SVG/1.1/DTD/svg11.dtd">
<!-- Creator: CorelDRAW 2019 (64-Bit) -->
<svg xmlns="http://www.w3.org/2000/svg" xml:space="preserve" width="96.1634mm" height="92.7331mm" version="1.1" style="shape-rendering:geometricPrecision; text-rendering:geometricPrecision; image-rendering:optimizeQuality; fill-rule:evenodd; clip-rule:evenodd"
viewBox="0 0 2674 2578"
 xmlns:xlink="http://www.w3.org/1999/xlink">
 <defs>
  <style type="text/css">
   <![CDATA[
    .str0 {stroke:#E74B54;stroke-width:111;stroke-linecap:round;stroke-linejoin:round;stroke-miterlimit:22.9256}
    .fil0 {fill:#E74B54}
   ]]>
  </style>
 </defs>
 <g id="Слой_x0020_1">
  <metadata id="CorelCorpID_0Corel-Layer"/>
  <path class="fil0 str0" d="M2604 978c-38,-116 -141,-191 -262,-191l-512 0c-34,0 -62,-20 -72,-50l-158 -490c-38,-116 -141,-191 -262,-191 -122,0 -225,75 -262,191l-158 490c-10,30 -38,50 -72,50l-512 0c-122,0 -224,75 -262,191 -38,117 1,239 100,310l414 301c27,19 38,53 28,85l-158 487c-38,116 2,237 100,309 49,36 106,54 162,54 56,0 113,-18 162,-54l414 -301c27,-19 62,-19 89,0l414 301c99,72 226,72 324,0 99,-72 138,-193 100,-309l-108 -333c-17,-53 -74,-81 -126,-64 -53,17 -81,74 -64,126l108 333c16,49 -17,77 -28,85 -10,8 -48,30 -89,0l-414 -301c-97,-70 -227,-70 -324,0l-414 301c-41,30 -79,8 -89,0 -10,-8 -43,-36 -28,-85l158 -487c37,-114 -3,-238 -100,-309l-414 -301c-42,-30 -31,-74 -27,-86 4,-12 21,-53 72,-53l512 0c120,0 226,-76 262,-188l158 -490c16,-49 59,-52 72,-52 13,0 56,4 72,52l158 490c37,113 142,188 262,188l512 0c51,0 68,41 72,53 4,13 14,56 -27,86l-282 205c-45,32 -55,95 -22,140 32,45 95,55 140,22l282 -205c99,-72 138,-194 100,-310z"/>
  <path class="fil0" d="M2482 1028c-32,-97 -118,-160 -220,-160l-512 0c-28,0 -52,-16 -60,-42l-133 -411c-32,-97 -118,-160 -220,-160 -102,0 -188,63 -220,160l-132 410c-8,25 -32,42 -60,42l-429 0c-102,0 -188,63 -220,160 -32,98 1,200 84,260l347 252c22,16 32,45 23,71l-160 478c-32,97 1,198 84,258 41,30 89,45 136,45 47,0 95,-15 136,-45l347 -252c22,-16 122,-16 144,0l347 252c83,60 189,60 272,0 83,-60 115,-161 84,-258l-91 -279c-14,-44 -62,-68 -106,-54 -44,14 -68,62 -54,106l77 279c31,95 -30,106 -98,57l-333 -238c-81,-59 -260,-59 -341,0l-361 238c-35,25 -66,6 -75,0 -9,-6 -22,-30 -9,-71l160 -464c31,-96 -3,-199 -84,-258l-347 -252c-35,-25 -26,-62 -23,-72 3,-10 18,-45 60,-45l429 0c101,0 189,-63 220,-158l132 -410c13,-41 50,-44 60,-44 11,0 47,3 60,44l133 411c31,94 119,158 220,158l471 14c42,0 57,20 60,31 3,11 12,47 -23,72l-195 172c-37,27 -46,80 -19,117 27,37 80,46 117,19l237 -172c83,-60 116,-162 84,-260z"/>
 </g>
</svg>
