<svg height="512" width="512" xmlns="http://www.w3.org/2000/svg"><path d="M256 7.5v497c5.003 0 9.421-2.458 12.146-6.223l139.905-193.562C430.349 273.868 443.5 235.972 443.5 195 443.5 91.447 359.553 7.5 256 7.5z" fill="#e74b54"/><path d="M256 7.5C152.447 7.5 68.5 91.447 68.5 195c0 40.972 13.151 78.868 35.449 109.716l139.905 193.562c2.725 3.764 7.144 6.223 12.146 6.223 4.202 0 7.914-2.458 10.203-6.223l117.52-193.562C402.453 273.868 413.5 235.972 413.5 195 413.5 91.447 342.985 7.5 256 7.5z" fill="#e74b54"/><path d="M256 82.5v225c62.132 0 112.5-50.368 112.5-112.5S318.132 82.5 256 82.5z" fill="#EFC3CD"/><path d="M256 82.5c-62.132 0-112.5 50.368-112.5 112.5S193.868 307.5 256 307.5c45.563 0 82.5-50.368 82.5-112.5S301.563 82.5 256 82.5z" fill="#fff"/><path d="M256 157.5v75c20.711 0 37.5-16.789 37.5-37.5s-16.789-37.5-37.5-37.5z" fill="#e74b54"/><path d="M263.5 195c0-20.711-3.358-37.5-7.5-37.5-20.711 0-37.5 16.789-37.5 37.5s16.789 37.5 37.5 37.5c4.142 0 7.5-16.789 7.5-37.5z" fill="#ff4572"/><path d="M256 150a44.786 44.786 0 00-16.436 3.11 7.5 7.5 0 005.481 13.963A29.841 29.841 0 01256 165c16.542 0 30 13.458 30 30s-13.458 30-30 30-30-13.458-30-30c0-3.766.697-7.452 2.073-10.955a7.5 7.5 0 00-4.24-9.722 7.5 7.5 0 00-9.722 4.24A44.772 44.772 0 00211 195c0 24.813 20.187 45 45 45s45-20.187 45-45-20.187-45-45-45z"/><path d="M256 0C148.477 0 61 87.477 61 195c0 41.28 12.75 80.739 36.871 114.109l139.908 193.566C242.006 508.514 248.817 512 256 512s13.994-3.486 18.225-9.329L414.13 309.109C438.25 275.739 451 236.28 451 195 451 87.477 363.523 0 256 0zm145.972 300.322L262.071 493.879C260.635 495.862 258.422 497 256 497s-4.635-1.138-6.067-3.116L110.027 300.322C87.767 269.525 76 233.105 76 195c0-99.252 80.748-180 180-180s180 80.748 180 180c0 38.105-11.767 74.525-34.028 105.322z"/><path d="M256 75c-66.168 0-120 53.832-120 120s53.832 120 120 120 120-53.832 120-120S322.168 75 256 75zm0 225c-57.897 0-105-47.103-105-105S198.103 90 256 90s105 47.103 105 105-47.103 105-105 105z"/></svg>