<svg xmlns="http://www.w3.org/2000/svg" width="363.452" height="350.487" viewBox="0 0 2674 2578" shape-rendering="geometricPrecision" text-rendering="geometricPrecision" image-rendering="optimizeQuality" fill-rule="evenodd" clip-rule="evenodd"><defs><style>.fil0{fill:#e74b54}</style></defs><g id="Слой_x0020_1"><path class="fil0" d="M2604 978c-38-116-141-191-262-191h-512c-34 0-62-20-72-50l-158-490c-38-116-141-191-262-191-122 0-225 75-262 191L918 737c-10 30-38 50-72 50H334c-122 0-224 75-262 191-38 117 1 239 100 310l414 301c27 19 38 53 28 85l-158 487c-38 116 2 237 100 309 49 36 106 54 162 54s113-18 162-54l414-301c27-19 62-19 89 0l414 301c99 72 226 72 324 0 99-72 138-193 100-309l-108-333c-17-53-74-81-126-64-53 17-81 74-64 126l108 333c16 49-17 77-28 85-10 8-48 30-89 0l-414-301c-97-70-227-70-324 0l-414 301c-41 30-79 8-89 0s-43-36-28-85l158-487c37-114-3-238-100-309l-414-301c-42-30-31-74-27-86s21-53 72-53h512c120 0 226-76 262-188l158-490c16-49 59-52 72-52s56 4 72 52l158 490c37 113 142 188 262 188h512c51 0 68 41 72 53 4 13 14 56-27 86l-282 205c-45 32-55 95-22 140 32 45 95 55 140 22l282-205c99-72 138-194 100-310z" stroke="#e74b54" stroke-width="111" stroke-linecap="round" stroke-linejoin="round" stroke-miterlimit="22.926"/><path class="fil0" d="M2482 1028c-32-97-118-160-220-160h-512c-28 0-52-16-60-42l-133-411c-32-97-118-160-220-160s-188 63-220 160L985 825c-8 25-32 42-60 42H496c-102 0-188 63-220 160-32 98 1 200 84 260l347 252c22 16 32 45 23 71l-160 478c-32 97 1 198 84 258 41 30 89 45 136 45s95-15 136-45l347-252c22-16 122-16 144 0l347 252c83 60 189 60 272 0s115-161 84-258l-91-279c-14-44-62-68-106-54s-68 62-54 106l77 279c31 95-30 106-98 57l-333-238c-81-59-260-59-341 0l-361 238c-35 25-66 6-75 0s-22-30-9-71l160-464c31-96-3-199-84-258l-347-252c-35-25-26-62-23-72s18-45 60-45h429c101 0 189-63 220-158l132-410c13-41 50-44 60-44 11 0 47 3 60 44l133 411c31 94 119 158 220 158l471 14c42 0 57 20 60 31s12 47-23 72l-195 172c-37 27-46 80-19 117s80 46 117 19l237-172c83-60 116-162 84-260z"/></g></svg>