<svg xmlns="http://www.w3.org/2000/svg" width="331.079" height="34.76mm" viewBox="0 0 979 389" shape-rendering="geometricPrecision" text-rendering="geometricPrecision" image-rendering="optimizeQuality" fill-rule="evenodd" clip-rule="evenodd"><defs><style>.fil1{fill:#e74b54;fill-rule:nonzero}</style></defs><g id="Слой_x0020_1"><path d="M37 34C12 57 0 97 0 155v79c0 58 12 98 37 121s68 34 130 34h58c62 0 106-11 131-34s37-63 37-121v-79c0-57-12-98-37-121S288 0 225 0h-58C105 0 62 11 37 34zm91 92c-11 10-16 27-16 52v34c0 25 5 42 16 52s29 15 56 15h25c27 0 45-5 56-15s16-27 16-52v-34c0-25-5-42-16-52s-29-15-56-15h-25c-26 0-45 5-56 15z" fill="#e74b54"/><path class="fil1" d="M578 4h106L578 195V4z"/><path class="fil1" d="M979 379L765 4 616 264l-111 1V4H381v379l205-5h95c84-154 1-1 84-153 83 152 0-1 84 153h129z"/></g></svg>