<svg xmlns="http://www.w3.org/2000/svg" xmlns:xlink="http://www.w3.org/1999/xlink"><defs>
  <style type="text/css">
   <![CDATA[
    .fil4 {fill:black}
    .fil2 {fill:#D6D6D6}
    .fil0 {fill:#E74B54}
    .fil1 {fill:#FF8C95}
    .fil3 {fill:white}
   ]]>
  </style>
 </defs><symbol id="icon-arrow" viewBox="0 0 8 12">
<path fill-rule="evenodd" clip-rule="evenodd" d="M0 1.4L4.6 6L0 10.6L1.4 12L7.4 6L1.4 0L0 1.4Z" fill="#2C2E3F" fill-opacity="0.5"/>
</symbol><symbol id="icon-mail" viewBox="0 0 26 20">
<path d="M24.2273 0H1.77273C0.768182 0 0 0.764706 0 1.76471V18.2353C0 19.2353 0.768182 20 1.77273 20H24.2273C25.2318 20 26 19.2353 26 18.2353V1.76471C26 0.764706 25.2318 0 24.2273 0ZM24.2273 17L19.5591 12.3529C19.2045 12 18.6727 12 18.3182 12.3529C17.9636 12.7059 17.9636 13.2353 18.3182 13.5882L22.9864 18.2353H3.01362L7.68182 13.5882C8.03636 13.2353 8.03636 12.7059 7.68182 12.3529C7.32727 12 6.79547 12 6.44092 12.3529L1.77273 17V5.70585L12.4091 13.7059C12.5864 13.8236 12.7636 13.8823 12.9409 13.8823C13.1182 13.8823 13.2954 13.8236 13.4727 13.7059L24.2273 5.70585V17ZM24.2273 1.76471V3.4706L12.9409 11.8235L1.77273 3.4706V1.76471H24.2273Z" fill="#e74b54"/>
</symbol><symbol id="icon-phone" viewBox="0 0 22 24">
<path d="M3.45641 6.62432C3.37185 5.42623 3.63759 4.24606 4.3412 3.29684C4.9512 2.43632 5.74541 1.96636 6.70269 1.69172C7.50898 1.4525 8.03745 1.74561 8.26998 2.64204C8.60217 3.98224 9.07628 5.3225 9.24841 6.73361C9.30277 7.35485 8.90114 8.23322 8.46629 8.6856C7.37614 9.75888 7.60263 10.5399 8.43006 12.1643C8.68675 12.6881 9.09442 13.5934 9.88864 14.7919C10.7161 15.9992 11.1539 16.6472 12.2169 16.0975C13.3977 15.5035 14.2583 15.8855 15.1492 16.8444C15.7531 17.5369 16.4175 18.1318 17.0215 18.8243C17.8942 19.8542 17.8549 20.5641 17.1725 21.2915C15.9434 22.6309 13.9141 23.0736 12.4042 22.1766C11.5707 21.6881 10.7402 21.0487 10.0789 20.303C7.16477 16.9825 5.06297 13.1212 3.79765 8.76321C3.59532 8.02654 3.50171 7.28104 3.45641 6.62432Z" stroke="#e74b54" fill="none" stroke-width="2" stroke-miterlimit="10"/>
</symbol><symbol id="icon-pin" viewBox="0 0 819 953">
 
 <g id="&#x421;&#x43B;&#x43E;&#x439;_x0020_1">
  <metadata id="CorelCorpID_0Corel-Layer"/>
  <path class="fil0" d="M686 132c-153,-153 -401,-153 -554,0 -135,135 -153,349 -42,504 77,108 170,204 276,285 26,20 62,20 87,0 25,-19 49,-39 73,-60 76,-67 144,-143 203,-225 111,-156 93,-369 -42,-504l0 0z"/>
  <path class="fil1" d="M187 167c-135,135 -153,349 -42,504 24,33 49,65 75,96 7,8 -5,20 -13,12 -42,-45 -82,-92 -117,-142 -49,-68 -72,-148 -72,-226 0,-226 192,-407 420,-391 22,2 22,33 0,35 -91,6 -181,44 -250,114z"/>
  <circle class="fil2" cx="409" cy="407" r="280"/>
  <path class="fil3" d="M184 572c-35,-47 -55,-106 -54,-170 3,-176 168,-308 341,-269 20,5 17,34 -4,35 -189,3 -324,213 -253,387 8,19 -18,33 -30,17l0 0z"/>
  <path class="fil0" d="M556 338c19,3 27,27 13,40l-54 53c-6,5 -8,13 -7,21l13 74c3,19 -17,34 -34,25l-67 -35c-7,-4 -15,-4 -22,0l-67 35c-17,9 -37,-6 -34,-25l13 -74c1,-8 -1,-15 -7,-21l-54 -53c-14,-14 -6,-37 13,-40l74 -11c8,-1 14,-6 18,-13l33 -67c9,-18 34,-18 42,0l33 67c3,7 10,12 18,13l74 11z"/>
  <path class="fil4" d="M743 646c116,-163 97,-386 -44,-526 -160,-160 -419,-160 -579,0 -141,141 -160,364 -44,526 78,110 172,207 279,288 32,24 77,24 109,0 8,-6 9,-17 3,-25 -6,-8 -17,-9 -25,-3 -20,15 -47,15 -66,0 -104,-80 -196,-174 -272,-281 -106,-149 -89,-352 41,-481 146,-146 383,-146 529,0 130,130 147,332 41,481 -94,132 -182,204 -188,212 -6,7 -5,17 0,23 3,3 13,10 26,-1 25,-22 3,-2 25,-22 61,-58 117,-123 166,-192l0 0z"/>
  <path class="fil4" d="M148 509c-9,4 -13,14 -8,23 49,104 154,172 270,172 164,0 297,-133 297,-297 0,-164 -133,-297 -297,-297 -164,0 -297,133 -297,297 0,10 8,17 17,17 10,0 17,-8 17,-17 0,-145 118,-262 262,-262 145,0 262,118 262,262 0,145 -118,262 -262,262 -102,0 -195,-60 -238,-152 -4,-9 -14,-13 -23,-8l0 0z"/>
  <path class="fil4" d="M581 391c24,-24 11,-65 -23,-70l-74 -11c-2,0 -4,-2 -5,-3l-33 -67c-15,-30 -59,-30 -74,0l-33 67c-1,2 -3,3 -5,3l-74 11c-34,5 -47,46 -23,70l54 53c1,1 2,3 2,5l-13 74c-6,34 29,59 60,43l67 -35c2,-1 4,-1 6,0l67 35c30,16 65,-10 60,-43l-13 -74c0,-2 0,-4 2,-5l54 -53zm-78 27c-10,9 -14,23 -12,36l13 74c1,5 -4,9 -9,6l-67 -35c-12,-6 -26,-6 -38,0l-67 35c-4,2 -10,-1 -9,-6l13 -74c2,-13 -2,-27 -12,-36l-54 -53c-4,-4 -2,-10 3,-10l74 -11c13,-2 25,-10 31,-22l33 -67c2,-5 9,-5 11,0l33 67c6,12 18,21 31,22l74 11c5,1 7,7 3,10l-54 53z"/>
 </g>
</symbol><symbol id="icon-video" viewBox="0 0 14 19">
<path fill-rule="evenodd" clip-rule="evenodd" d="M0.600098 0.399902L13.6001 9.4999L0.600098 18.5999V0.399902Z" fill="#070707"/>
</symbol></svg>