<svg xmlns="http://www.w3.org/2000/svg" xmlns:xlink="http://www.w3.org/1999/xlink"><symbol id="icon-arrow" viewBox="0 0 8 12">
<path fill-rule="evenodd" clip-rule="evenodd" d="M0 1.4L4.6 6L0 10.6L1.4 12L7.4 6L1.4 0L0 1.4Z" fill="#2C2E3F" fill-opacity="0.5"/>
</symbol><symbol id="icon-mail" viewBox="0 0 26 20">
<path d="M24.2273 0H1.77273C0.768182 0 0 0.764706 0 1.76471V18.2353C0 19.2353 0.768182 20 1.77273 20H24.2273C25.2318 20 26 19.2353 26 18.2353V1.76471C26 0.764706 25.2318 0 24.2273 0ZM24.2273 17L19.5591 12.3529C19.2045 12 18.6727 12 18.3182 12.3529C17.9636 12.7059 17.9636 13.2353 18.3182 13.5882L22.9864 18.2353H3.01362L7.68182 13.5882C8.03636 13.2353 8.03636 12.7059 7.68182 12.3529C7.32727 12 6.79547 12 6.44092 12.3529L1.77273 17V5.70585L12.4091 13.7059C12.5864 13.8236 12.7636 13.8823 12.9409 13.8823C13.1182 13.8823 13.2954 13.8236 13.4727 13.7059L24.2273 5.70585V17ZM24.2273 1.76471V3.4706L12.9409 11.8235L1.77273 3.4706V1.76471H24.2273Z" fill="#e74b54"/>
</symbol><symbol id="icon-phone" viewBox="0 0 22 24">
<path d="M3.45641 6.62432C3.37185 5.42623 3.63759 4.24606 4.3412 3.29684C4.9512 2.43632 5.74541 1.96636 6.70269 1.69172C7.50898 1.4525 8.03745 1.74561 8.26998 2.64204C8.60217 3.98224 9.07628 5.3225 9.24841 6.73361C9.30277 7.35485 8.90114 8.23322 8.46629 8.6856C7.37614 9.75888 7.60263 10.5399 8.43006 12.1643C8.68675 12.6881 9.09442 13.5934 9.88864 14.7919C10.7161 15.9992 11.1539 16.6472 12.2169 16.0975C13.3977 15.5035 14.2583 15.8855 15.1492 16.8444C15.7531 17.5369 16.4175 18.1318 17.0215 18.8243C17.8942 19.8542 17.8549 20.5641 17.1725 21.2915C15.9434 22.6309 13.9141 23.0736 12.4042 22.1766C11.5707 21.6881 10.7402 21.0487 10.0789 20.303C7.16477 16.9825 5.06297 13.1212 3.79765 8.76321C3.59532 8.02654 3.50171 7.28104 3.45641 6.62432Z" stroke="#e74b54" fill="none" stroke-width="2" stroke-miterlimit="10"/>
</symbol><symbol id="icon-pin" viewBox="0 0 512 512">
  <g>
    <path d="m256 7.5v497c5.003 0 9.421-2.458 12.146-6.223l139.905-193.562c22.298-30.847 35.449-68.743 35.449-109.715 0-103.553-83.947-187.5-187.5-187.5z" fill="#e74b54"/>
    <path d="m256 7.5c-103.553 0-187.5 83.947-187.5 187.5 0 40.972 13.151 78.868 35.449 109.716l139.905 193.562c2.725 3.764 7.144 6.223 12.146 6.223 4.202 0 7.914-2.458 10.203-6.223l117.52-193.562c18.73-30.848 29.777-68.744 29.777-109.716 0-103.553-70.515-187.5-157.5-187.5z" fill="#e74b54"/>
    <path d="m256 82.5v225c62.132 0 112.5-50.368 112.5-112.5s-50.368-112.5-112.5-112.5z" fill="#EFC3CD"/>
    <path d="m256 82.5c-62.132 0-112.5 50.368-112.5 112.5s50.368 112.5 112.5 112.5c45.563 0 82.5-50.368 82.5-112.5s-36.937-112.5-82.5-112.5z" fill="#fff"/>
    <path d="m256 157.5v75c20.711 0 37.5-16.789 37.5-37.5s-16.789-37.5-37.5-37.5z" fill="#e74b54"/>
    <path d="m263.5 195c0-20.711-3.358-37.5-7.5-37.5-20.711 0-37.5 16.789-37.5 37.5s16.789 37.5 37.5 37.5c4.142 0 7.5-16.789 7.5-37.5z" fill="#ff4572"/>

    <path d="m256 150c-5.649 0-11.18 1.046-16.436 3.11-3.856 1.514-5.754 5.867-4.241 9.722 1.514 3.855 5.866 5.752 9.722 4.241 3.503-1.376 7.189-2.073 10.955-2.073 16.542 0 30 13.458 30 30s-13.458 30-30 30-30-13.458-30-30c0-3.766.697-7.452 2.073-10.955 1.514-3.855-.384-8.208-4.24-9.722-3.853-1.515-8.208.384-9.722 4.24-2.065 5.257-3.111 10.787-3.111 16.437 0 24.813 20.187 45 45 45s45-20.187 45-45-20.187-45-45-45z"/>
    <path d="m256 0c-107.523 0-195 87.477-195 195 0 41.28 12.75 80.739 36.871 114.109l139.908 193.566c4.227 5.839 11.038 9.325 18.221 9.325s13.994-3.486 18.225-9.329l139.905-193.562c24.12-33.37 36.87-72.829 36.87-114.109 0-107.523-87.477-195-195-195zm145.972 300.322-139.901 193.557c-1.436 1.983-3.649 3.121-6.071 3.121s-4.635-1.138-6.067-3.116l-139.906-193.562c-22.26-30.797-34.027-67.217-34.027-105.322 0-99.252 80.748-180 180-180s180 80.748 180 180c0 38.105-11.767 74.525-34.028 105.322z"/>
    <path d="m256 75c-66.168 0-120 53.832-120 120s53.832 120 120 120 120-53.832 120-120-53.832-120-120-120zm0 225c-57.897 0-105-47.103-105-105s47.103-105 105-105 105 47.103 105 105-47.103 105-105 105z"/>
  </g>
</symbol><symbol id="icon-video" viewBox="0 0 14 19">
<path fill-rule="evenodd" clip-rule="evenodd" d="M0.600098 0.399902L13.6001 9.4999L0.600098 18.5999V0.399902Z" fill="#070707"/>
</symbol></svg>